G75*
%MOIN*%
%OFA0B0*%
%FSLAX25Y25*%
%IPPOS*%
%LPD*%
%AMOC8*
5,1,8,0,0,1.08239X$1,22.5*
%
%ADD10C,0.00600*%
%ADD11C,0.02000*%
D10*
X0176011Y0021000D02*
X0176011Y0027300D01*
X0176011Y0021000D02*
X0189311Y0021000D01*
X0195811Y0027600D02*
X0195811Y0032300D01*
X0195811Y0039700D02*
X0195811Y0042300D01*
X0195811Y0049700D02*
X0195811Y0052300D01*
X0195811Y0059700D02*
X0195811Y0062300D01*
X0195811Y0069700D02*
X0195811Y0072300D01*
X0195811Y0079700D02*
X0195811Y0082300D01*
X0195811Y0089700D02*
X0195811Y0092300D01*
X0195811Y0099700D02*
X0195811Y0102300D01*
X0195811Y0109700D02*
X0195811Y0112300D01*
X0195811Y0119700D02*
X0195811Y0122300D01*
X0195811Y0129700D02*
X0195811Y0132300D01*
X0195811Y0139700D02*
X0195811Y0142300D01*
X0195811Y0149700D02*
X0195811Y0152300D01*
X0189311Y0166000D02*
X0176011Y0166000D01*
X0176011Y0154700D01*
X0176011Y0147300D02*
X0176011Y0144700D01*
X0176011Y0137300D02*
X0176011Y0134700D01*
X0176011Y0127300D02*
X0176011Y0124700D01*
X0176011Y0117300D02*
X0176011Y0114700D01*
X0176011Y0107300D02*
X0176011Y0104700D01*
X0176011Y0097300D02*
X0176011Y0094700D01*
X0176011Y0087300D02*
X0176011Y0084700D01*
X0176011Y0077300D02*
X0176011Y0074700D01*
X0176011Y0067300D02*
X0176011Y0064700D01*
X0176011Y0057300D02*
X0176011Y0054700D01*
X0176011Y0047300D02*
X0176011Y0044700D01*
X0176011Y0037300D02*
X0176011Y0034700D01*
D11*
X0206811Y0154500D02*
X0206735Y0154502D01*
X0206659Y0154508D01*
X0206584Y0154517D01*
X0206509Y0154531D01*
X0206435Y0154548D01*
X0206362Y0154569D01*
X0206290Y0154593D01*
X0206219Y0154622D01*
X0206150Y0154653D01*
X0206083Y0154688D01*
X0206018Y0154727D01*
X0205954Y0154769D01*
X0205893Y0154814D01*
X0205834Y0154862D01*
X0205778Y0154913D01*
X0205724Y0154967D01*
X0205673Y0155023D01*
X0205625Y0155082D01*
X0205580Y0155143D01*
X0205538Y0155207D01*
X0205499Y0155272D01*
X0205464Y0155339D01*
X0205433Y0155408D01*
X0205404Y0155479D01*
X0205380Y0155551D01*
X0205359Y0155624D01*
X0205342Y0155698D01*
X0205328Y0155773D01*
X0205319Y0155848D01*
X0205313Y0155924D01*
X0205311Y0156000D01*
X0205313Y0156076D01*
X0205319Y0156152D01*
X0205328Y0156227D01*
X0205342Y0156302D01*
X0205359Y0156376D01*
X0205380Y0156449D01*
X0205404Y0156521D01*
X0205433Y0156592D01*
X0205464Y0156661D01*
X0205499Y0156728D01*
X0205538Y0156793D01*
X0205580Y0156857D01*
X0205625Y0156918D01*
X0205673Y0156977D01*
X0205724Y0157033D01*
X0205778Y0157087D01*
X0205834Y0157138D01*
X0205893Y0157186D01*
X0205954Y0157231D01*
X0206018Y0157273D01*
X0206083Y0157312D01*
X0206150Y0157347D01*
X0206219Y0157378D01*
X0206290Y0157407D01*
X0206362Y0157431D01*
X0206435Y0157452D01*
X0206509Y0157469D01*
X0206584Y0157483D01*
X0206659Y0157492D01*
X0206735Y0157498D01*
X0206811Y0157500D01*
X0206887Y0157498D01*
X0206963Y0157492D01*
X0207038Y0157483D01*
X0207113Y0157469D01*
X0207187Y0157452D01*
X0207260Y0157431D01*
X0207332Y0157407D01*
X0207403Y0157378D01*
X0207472Y0157347D01*
X0207539Y0157312D01*
X0207604Y0157273D01*
X0207668Y0157231D01*
X0207729Y0157186D01*
X0207788Y0157138D01*
X0207844Y0157087D01*
X0207898Y0157033D01*
X0207949Y0156977D01*
X0207997Y0156918D01*
X0208042Y0156857D01*
X0208084Y0156793D01*
X0208123Y0156728D01*
X0208158Y0156661D01*
X0208189Y0156592D01*
X0208218Y0156521D01*
X0208242Y0156449D01*
X0208263Y0156376D01*
X0208280Y0156302D01*
X0208294Y0156227D01*
X0208303Y0156152D01*
X0208309Y0156076D01*
X0208311Y0156000D01*
X0208309Y0155924D01*
X0208303Y0155848D01*
X0208294Y0155773D01*
X0208280Y0155698D01*
X0208263Y0155624D01*
X0208242Y0155551D01*
X0208218Y0155479D01*
X0208189Y0155408D01*
X0208158Y0155339D01*
X0208123Y0155272D01*
X0208084Y0155207D01*
X0208042Y0155143D01*
X0207997Y0155082D01*
X0207949Y0155023D01*
X0207898Y0154967D01*
X0207844Y0154913D01*
X0207788Y0154862D01*
X0207729Y0154814D01*
X0207668Y0154769D01*
X0207604Y0154727D01*
X0207539Y0154688D01*
X0207472Y0154653D01*
X0207403Y0154622D01*
X0207332Y0154593D01*
X0207260Y0154569D01*
X0207187Y0154548D01*
X0207113Y0154531D01*
X0207038Y0154517D01*
X0206963Y0154508D01*
X0206887Y0154502D01*
X0206811Y0154500D01*
M02*
