G75*
%MOIN*%
%OFA0B0*%
%FSLAX25Y25*%
%IPPOS*%
%LPD*%
%AMOC8*
5,1,8,0,0,1.08239X$1,22.5*
%
%ADD10R,0.05906X0.05118*%
%ADD11R,0.05512X0.05512*%
%ADD12R,0.21000X0.07600*%
%ADD13R,0.05500X0.04000*%
%ADD14R,0.01400X0.05800*%
%ADD15R,0.02100X0.06100*%
%ADD16R,0.14961X0.08858*%
%ADD17R,0.09843X0.02165*%
D10*
X0074799Y0084760D03*
X0074799Y0092240D03*
X0067535Y0134819D03*
X0067535Y0142299D03*
X0067201Y0154760D03*
X0067201Y0162240D03*
X0054622Y0162496D03*
X0054622Y0155016D03*
X0052988Y0142299D03*
X0052988Y0134819D03*
X0039720Y0154504D03*
X0039720Y0161984D03*
X0025744Y0161984D03*
X0025744Y0154504D03*
X0148835Y0154878D03*
X0148835Y0147398D03*
D11*
X0019878Y0077358D03*
X0019878Y0062398D03*
X0051177Y0034858D03*
X0051177Y0019898D03*
D12*
X0082748Y0155232D03*
X0120748Y0155232D03*
D13*
X0087024Y0114700D03*
X0087024Y0107300D03*
X0076335Y0106611D03*
X0076335Y0114011D03*
X0052201Y0113322D03*
X0052201Y0105922D03*
X0052201Y0089779D03*
X0052201Y0082379D03*
X0063165Y0082300D03*
X0063165Y0089700D03*
X0066689Y0059700D03*
X0066689Y0052300D03*
X0076000Y0052300D03*
X0076000Y0059700D03*
X0052378Y0057200D03*
X0052378Y0049800D03*
X0071531Y0037377D03*
X0071531Y0029977D03*
X0081846Y0029977D03*
X0081846Y0037377D03*
X0092909Y0037377D03*
X0092909Y0029977D03*
D14*
X0125997Y0030313D03*
X0128597Y0030313D03*
X0131097Y0030313D03*
X0133697Y0030313D03*
X0136297Y0030313D03*
X0138797Y0030313D03*
X0141397Y0030313D03*
X0141397Y0052513D03*
X0138797Y0052513D03*
X0136297Y0052513D03*
X0133697Y0052513D03*
X0131097Y0052513D03*
X0128597Y0052513D03*
X0125997Y0052513D03*
X0117775Y0069683D03*
X0115175Y0069683D03*
X0112675Y0069683D03*
X0110075Y0069683D03*
X0107475Y0069683D03*
X0104975Y0069683D03*
X0102375Y0069683D03*
X0102375Y0091883D03*
X0104975Y0091883D03*
X0107475Y0091883D03*
X0110075Y0091883D03*
X0112675Y0091883D03*
X0115175Y0091883D03*
X0117775Y0091883D03*
X0126430Y0109900D03*
X0129030Y0109900D03*
X0131530Y0109900D03*
X0134130Y0109900D03*
X0136730Y0109900D03*
X0139230Y0109900D03*
X0141830Y0109900D03*
X0141830Y0132100D03*
X0139230Y0132100D03*
X0136730Y0132100D03*
X0134130Y0132100D03*
X0131530Y0132100D03*
X0129030Y0132100D03*
X0126430Y0132100D03*
D15*
X0033500Y0120600D03*
X0028500Y0120600D03*
X0023500Y0120600D03*
X0018500Y0120600D03*
X0018500Y0091400D03*
X0023500Y0091400D03*
X0028500Y0091400D03*
X0033500Y0091400D03*
D16*
X0027535Y0020744D03*
X0027535Y0051256D03*
D17*
X0036591Y0040724D03*
X0036591Y0037575D03*
X0036591Y0034425D03*
X0036591Y0031276D03*
M02*
