G75*
%MOIN*%
%OFA0B0*%
%FSLAX25Y25*%
%IPPOS*%
%LPD*%
%AMOC8*
5,1,8,0,0,1.08239X$1,22.5*
%
%ADD10C,0.03162*%
%ADD11R,0.08700X0.05500*%
%ADD12C,0.11150*%
%ADD13C,0.06343*%
%ADD14C,0.04737*%
%ADD15R,0.04762X0.04762*%
%ADD16C,0.04800*%
D10*
X0011000Y0014543D03*
X0011000Y0168087D03*
X0211787Y0168087D03*
X0211787Y0014543D03*
D11*
X0197811Y0036000D03*
X0197811Y0046000D03*
X0197811Y0056000D03*
X0197811Y0066000D03*
X0197811Y0076000D03*
X0197811Y0086000D03*
X0197811Y0096000D03*
X0197811Y0106000D03*
X0197811Y0116000D03*
X0197811Y0126000D03*
X0197811Y0136000D03*
X0197811Y0146000D03*
X0197811Y0156000D03*
X0174211Y0151000D03*
X0174211Y0141000D03*
X0174211Y0131000D03*
X0174211Y0121000D03*
X0174211Y0111000D03*
X0174211Y0101000D03*
X0174211Y0091000D03*
X0174211Y0081000D03*
X0174211Y0071000D03*
X0174211Y0061000D03*
X0174211Y0051000D03*
X0174211Y0041000D03*
X0174211Y0031000D03*
D12*
X0193511Y0023400D03*
X0193511Y0163600D03*
D13*
X0035016Y0142122D03*
X0027142Y0142122D03*
D14*
X0024189Y0041906D03*
X0024189Y0030094D03*
D15*
X0038500Y0026000D03*
X0043500Y0011000D03*
X0016000Y0131000D03*
D16*
X0046100Y0113000D03*
X0025400Y0085100D03*
X0020000Y0085100D03*
X0033500Y0081500D03*
X0046100Y0083300D03*
X0043400Y0065300D03*
X0058700Y0050000D03*
X0072200Y0046400D03*
X0105500Y0063500D03*
X0110900Y0063500D03*
X0118100Y0063500D03*
X0121700Y0069800D03*
X0115400Y0076100D03*
X0102800Y0076100D03*
X0097400Y0076100D03*
X0083000Y0079700D03*
X0098300Y0091400D03*
X0099200Y0106700D03*
X0101900Y0114800D03*
X0119000Y0104000D03*
X0126200Y0103100D03*
X0131600Y0104000D03*
X0128900Y0115700D03*
X0139700Y0125600D03*
X0138800Y0140900D03*
X0166700Y0149000D03*
X0166700Y0129200D03*
X0166700Y0119300D03*
X0166700Y0109400D03*
X0191000Y0104900D03*
X0191000Y0114800D03*
X0191000Y0134600D03*
X0191000Y0153500D03*
X0191000Y0074300D03*
X0166700Y0069800D03*
X0166700Y0050000D03*
X0166700Y0039200D03*
X0181100Y0042800D03*
X0191000Y0046400D03*
X0138800Y0046400D03*
X0137900Y0060800D03*
X0121700Y0030200D03*
X0080300Y0119300D03*
M02*
